<svg height="56" viewBox="0 0 56 56" width="56" xmlns="http://www.w3.org/2000/svg"><path d="m7.9923 43.9692691h32.0156c4.8987 0 7.3592-2.4375 7.3592-7.2656v-28.61719997c0-4.8281-2.4605-7.2656-7.3592-7.2656h-32.0156c-4.875 0-7.3594 2.414-7.3594 7.2656v28.61719997c0 4.8516 2.4844 7.2656 7.3594 7.2656zm-.3281-3.7734c-2.086 0-3.2578-1.1016-3.2578-3.2813v-22.1015c0-2.1563 1.1718-3.2813 3.2578-3.2813h32.6484c2.0859 0 3.2812 1.125 3.2812 3.2813v22.1015c0 2.1797-1.1953 3.2813-3.2812 3.2813zm11.7422-20.25h1.3828c.8203 0 1.1015-.2344 1.1015-1.0547v-1.3828c0-.8203-.2812-1.0781-1.1015-1.0781h-1.3828c-.8204 0-1.0782.2578-1.0782 1.0781v1.3828c0 .8203.2578 1.0547 1.0782 1.0547zm7.8047 0h1.3593c.8438 0 1.1016-.2344 1.1016-1.0547v-1.3828c0-.8203-.2578-1.0781-1.1016-1.0781h-1.3593c-.8204 0-1.1016.2578-1.1016 1.0781v1.3828c0 .8203.2812 1.0547 1.1016 1.0547zm7.7812 0h1.3828c.8203 0 1.1016-.2344 1.1016-1.0547v-1.3828c0-.8203-.2813-1.0781-1.1016-1.0781h-1.3828c-.8203 0-1.1016.2578-1.1016 1.0781v1.3828c0 .8203.2813 1.0547 1.1016 1.0547zm-23.3672 7.6641h1.3828c.8203 0 1.1016-.2344 1.1016-1.0547v-1.3828c0-.8203-.2813-1.0547-1.1016-1.0547h-1.3828c-.8203 0-1.1016.2344-1.1016 1.0547v1.3828c0 .8203.2813 1.0547 1.1016 1.0547zm7.7813 0h1.3828c.8203 0 1.1015-.2344 1.1015-1.0547v-1.3828c0-.8203-.2812-1.0547-1.1015-1.0547h-1.3828c-.8204 0-1.0782.2344-1.0782 1.0547v1.3828c0 .8203.2578 1.0547 1.0782 1.0547zm8.48435 1.8956895c2.0113048 0 3.6417895-1.6304847 3.6417895-3.6417895s-1.6304847-3.6417895-3.6417895-3.6417895-3.6417895 1.6304847-3.6417895 3.6417895 1.6304847 3.6417895 3.6417895 3.6417895zm7.10155-1.8956895h1.3828c.8203 0 1.1016-.2344 1.1016-1.0547v-1.3828c0-.8203-.2813-1.0547-1.1016-1.0547h-1.3828c-.8203 0-1.1016.2344-1.1016 1.0547v1.3828c0 .8203.2813 1.0547 1.1016 1.0547zm-23.3672 7.6875h1.3828c.8203 0 1.1016-.2579 1.1016-1.0782v-1.3828c0-.8203-.2813-1.0547-1.1016-1.0547h-1.3828c-.8203 0-1.1016.2344-1.1016 1.0547v1.3828c0 .8203.2813 1.0782 1.1016 1.0782zm7.7813 0h1.3828c.8203 0 1.1015-.2579 1.1015-1.0782v-1.3828c0-.8203-.2812-1.0547-1.1015-1.0547h-1.3828c-.8204 0-1.0782.2344-1.0782 1.0547v1.3828c0 .8203.2578 1.0782 1.0782 1.0782zm7.8047 0h1.3593c.8438 0 1.1016-.2579 1.1016-1.0782v-1.3828c0-.8203-.2578-1.0547-1.1016-1.0547h-1.3593c-.8204 0-1.1016.2344-1.1016 1.0547v1.3828c0 .8203.2812 1.0782 1.1016 1.0782z" transform="translate(4 6)"/></svg>