<?xml version="1.0" encoding="utf-8"?>
<!-- Uploaded to: SVG Repo, www.svgrepo.com, Generator: SVG Repo Mixer Tools -->
<svg width="800px" height="800px" viewBox="0 0 1024 1024" class="icon"  version="1.1" xmlns="http://www.w3.org/2000/svg"><path d="M916.918857 496.566857H70.509714v330.532572a36.571429 36.571429 0 0 0 36.571429 36.571428h699.977143a36.571429 36.571429 0 1 1 0 73.142857H73.142857a73.142857 73.142857 0 0 1-73.142857-73.142857V94.281143a73.142857 73.142857 0 0 1 73.142857-73.142857h251.611429a73.142857 73.142857 0 0 1 52.077714 21.796571l111.908571 113.590857a36.571429 36.571429 0 0 0 26.038858 10.898286H914.285714a73.142857 73.142857 0 0 1 73.142857 73.142857v521.508572a35.254857 35.254857 0 0 1-70.509714 0v-265.508572z m0-73.142857v-146.285714a36.571429 36.571429 0 0 0-36.571428-36.571429H501.321143a73.142857 73.142857 0 0 1-52.150857-21.796571l-111.908572-113.590857a36.571429 36.571429 0 0 0-25.965714-10.898286H107.081143a36.571429 36.571429 0 0 0-36.571429 36.571428v292.571429h846.409143z" fill="#000000" /></svg>