<svg fill="none" height="24" viewBox="0 0 24 24" width="24" xmlns="http://www.w3.org/2000/svg"><path d="m15.3929 4.05365-.5017.55747zm3.9588 3.56289-.5017.55748zm2.3023 2.53756-.6851.3051zm-18.48243 10.6743.53033-.5303zm17.65683 0-.5303-.5303zm-6.8284.4216h-4v1.5h4zm-11.25-7.25v-4h-1.5v4zm18.5-.4371v.4371h1.5v-.4371zm-6.3588-8.95178 3.9588 3.5629 1.0034-1.11495-3.9587-3.56289zm7.8588 8.95178c0-1.6884.0151-2.7574-.4109-3.71393l-1.3702.61023c.266.5973.2811 1.2828.2811 3.1037zm-3.9-5.38888c1.3534 1.21808 1.8529 1.68797 2.1189 2.28518l1.3702-.61023c-.426-.95656-1.2307-1.66044-2.4857-2.7899zm-8.8202-5.42402c1.5818 0 2.1787.01158 2.7107.21573l.5374-1.40043c-.8518-.32688-1.7799-.3153-3.2481-.3153zm5.8649.74618c-1.086-.9774-1.765-1.60404-2.6168-1.93088l-.5374 1.40043c.5322.2042.981.59263 2.1507 1.64539zm-5.8947 17.75382c-1.90682 0-3.26149-.0016-4.28915-.1398-1.00609-.1352-1.58574-.3889-2.00895-.8121l-1.06066 1.0607c.74837.7483 1.69731 1.0804 2.86974 1.2381 1.15084.1547 2.6246.1531 4.48902.1531zm-8.75-7.25c0 1.8644-.00159 3.3382.15313 4.489.15763 1.1724.48975 2.1214 1.23811 2.8698l1.06066-1.0607c-.42321-.4232-.67688-1.0029-.81214-2.0089-.13817-1.0277-.13976-2.3824-.13976-4.2892zm12.75 8.75c1.8644 0 3.3382.0016 4.489-.1531 1.1724-.1577 2.1214-.4898 2.8698-1.2381l-1.0607-1.0607c-.4232.4232-1.0029.6769-2.0089.8121-1.0277.1382-2.3824.1398-4.2892.1398zm7.25-8.75c0 1.9068-.0016 3.2615-.1398 4.2892-.1352 1.006-.3889 1.5857-.8121 2.0089l1.0607 1.0607c.7483-.7484 1.0804-1.6974 1.2381-2.8698.1547-1.1508.1531-2.6246.1531-4.489zm-18.5-4c0-1.90682.00159-3.26149.13976-4.28915.13526-1.00609.38893-1.58574.81214-2.00895l-1.06066-1.06066c-.74836.74837-1.08048 1.69731-1.23811 2.86974-.15472 1.15084-.15313 2.6246-.15313 4.48902zm7.2798-8.75c-1.87442 0-3.35538-.00158-4.51093.15307-1.17655.15747-2.12868.48923-2.87763 1.23817l1.06066 1.06066c.42263-.42262 1.00406-.67665 2.01595-.81208 1.0329-.13824 2.39526-.13982 4.31195-.13982z" fill="#1c274c"/><g stroke="#1c274c" stroke-width="1.5"><path d="m6 14.5h8" stroke-linecap="round"/><path d="m6 18h5.5" stroke-linecap="round"/><path d="m13 2.5v2.5c0 2.35702 0 3.53553.7322 4.26777.7323.73223 1.9108.73223 4.2678.73223h4"/></g></svg>