<svg height="56" viewBox="0 0 56 56" width="56" xmlns="http://www.w3.org/2000/svg"><path d="m12.6251 52.6445h30.7735c3.3281 0 5.2736-1.875 5.2736-5.1797v-21.3984l3.023 2.7656c.4925.4688 1.0315.7969 1.6877.7969 1.1016 0 1.992-.6797 1.992-1.8047 0-.7031-.2578-1.1484-.7027-1.5468l-8.1331-7.4298v-13.8046c0-1.0313-.6562-1.6875-1.6872-1.6875h-3.0706c-1.0078 0-1.7109.6562-1.7109 1.6875v7.9218l-9.2578-8.4374c-.8203-.75-1.8047-1.1719-2.8125-1.1719s-1.9922.4219-2.8125 1.1719l-23.8594 21.75c-.4218.3984-.7031.8437-.7031 1.5468 0 1.125.8906 1.8047 1.9922 1.8047.6797 0 1.2187-.3281 1.6875-.7969l3.0234-2.7422v21.375c0 3.3047 1.9453 5.1797 5.2969 5.1797zm22.125-19.3359c0-1.0781-.7031-1.7578-1.7812-1.7578h-9.9376c-1.0781 0-1.8046.6797-1.8046 1.7578v15.5625h-7.8047c-1.5 0-2.3203-.8203-2.3203-2.3438v-23.8828l16.0781-14.6484c.2344-.2344.5156-.375.8203-.375s.5859.1172.8438.375l16.0545 14.6484v23.8828c0 1.5235-.8203 2.3438-2.2967 2.3438h-7.8516z"/></svg>