<svg xmlns="http://www.w3.org/2000/svg" xmlns:xlink="http://www.w3.org/1999/xlink" version="1.1" id="圖層_1" x="0px" y="0px" style="enable-background:new 0 0 841.9 595.3;" xml:space="preserve" viewBox="146.91 150.7 560.44 191.4">
<style type="text/css">
	.st0{fill:#989fd4;}
	.st1{font-family:'Arial-Black';}
	.st2{font-size:88px;}
	.st3{fill:#BDC5E4;}
	.st4{fill:#a17cc8;}
	.st5{opacity:0.13;fill:#BDC5E4;}
</style>
<text transform="matrix(0.993 0 0 1 250.6888 271.3053)" class="st0 st1 st2">Expclip</text>
<path class="st3" d="M915.4,616.5"/>
<!-- <g>
	<g transform="translate(0.000000,511.000000) scale(0.100000,-0.100000)">
		<path class="st4" d="M1840.6,3156.9c-33.9-10.3-80.6-27.7-104.8-39.5c-154.1-75.4-247.7-211.1-264.1-384.2    c-14.7-153.6,33.7-268.8,132.9-316c35.7-16.7,54.4-20.3,107.5-20c42.9,0.3,49.6,0.8,72.1,6.9c106.5,29.2,167.1,118.8,160.4,237.3    c-2,35.4-8.7,62.6-23.2,92.8c-9.7,20.5-15.2,28-33.2,46.4c-37.4,38.2-77.6,54.1-137.4,54.4c-60.6,0.3-101.8-15.4-137.7-52.6    c-10.7-11-20-20-20.7-20c-2.7,0-1,19.2,4,42.8c17.2,81.8,59.1,153.9,118,202.4c38.7,31.8,84.1,56.7,138.9,75.4    c37.7,13.1,38.2,13.3,42.2,23.1c5.5,13.9-4,41.6-17.2,49.5C1870.3,3160.5,1854.4,3161,1840.6,3156.9z"/>
		<path class="st4" d="M2356.9,3153.6c-144.7-41-257.1-132.1-314.3-253.9c-55.9-119-63.1-272.7-17.5-372.4    c12.2-26.7,21.9-41.3,42.2-63.3c27.7-29.5,61.4-49.8,102.5-61c18.5-5.1,27.2-5.9,66.1-5.9c34.9,0,49.4,1,64.8,4.9    c88,20.8,145.4,78.5,165.1,166c3,13.9,4.2,30,4,60c0,48.7-4.2,68.5-22.2,106.4c-9.7,20.5-15.2,28-33.2,46.4    c-37.7,38.2-77.8,54.1-137.4,54.4c-63.4,0.3-109.2-18.2-142.7-57.2c-7.2-8.5-14.2-15.4-15.5-15.4c-3.5,0,0,27.4,7.2,56.7    c25.7,104.1,86.5,182.6,180.8,233.2c18.2,9.7,74.8,33.3,79.8,33.3c1.2,0,8.5,2.3,16.2,5.4c21.4,8.2,25.2,19.2,16,44.6    C2409.8,3160.8,2396.3,3164.9,2356.9,3153.6z"/>
	</g>
</g> -->
<!-- <g>
	<g transform="translate(0.000000,511.000000) scale(0.100000,-0.100000)">
		<path class="st4" d="M6702,2267.1c33.9,10.3,80.6,27.7,104.8,39.5c154.1,75.4,247.7,211.1,264.1,384.2    c14.7,153.6-33.7,268.8-132.9,316c-35.7,16.7-54.4,20.3-107.5,20c-42.9-0.3-49.6-0.8-72.1-6.9    c-106.5-29.2-167.1-118.8-160.4-237.3c2-35.4,8.7-62.6,23.2-92.8c9.7-20.5,15.2-28,33.2-46.4c37.4-38.2,77.6-54.1,137.4-54.4    c60.6-0.3,101.8,15.4,137.7,52.6c10.7,11,20,20,20.7,20c2.7,0,1-19.2-4-42.8c-17.2-81.8-59.1-153.9-118-202.4    c-38.7-31.8-84.1-56.7-138.9-75.4c-37.7-13.1-38.2-13.3-42.2-23.1c-5.5-13.9,4-41.6,17.2-49.5    C6672.3,2263.5,6688.3,2263,6702,2267.1z"/>
		<path class="st4" d="M6185.7,2270.4c144.7,41,257.1,132.1,314.3,253.9c55.9,119,63.1,272.7,17.5,372.4    c-12.2,26.7-21.9,41.3-42.2,63.3c-27.7,29.5-61.4,49.8-102.5,61c-18.5,5.1-27.2,5.9-66.1,5.9c-34.9,0-49.4-1-64.8-4.9    c-88-20.8-145.4-78.5-165.1-166c-3-13.9-4.2-30-4-60c0-48.7,4.2-68.5,22.2-106.4c9.7-20.5,15.2-28,33.2-46.4    c37.7-38.2,77.8-54.1,137.4-54.4c63.4-0.3,109.2,18.2,142.7,57.2c7.2,8.5,14.2,15.4,15.5,15.4c3.5,0,0-27.4-7.2-56.7    c-25.7-104.1-86.5-182.6-180.8-233.2c-18.2-9.7-74.8-33.3-79.8-33.3c-1.2,0-8.5-2.3-16.2-5.4c-21.4-8.2-25.2-19.2-16-44.6    C6132.9,2263.3,6146.3,2259.1,6185.7,2270.4z"/>
	</g>
</g> -->
<!-- <path class="st3" d="M264.1,371.3"/>
<path class="st3" d="M-824.2,0"/>
<polygon class="st5" points="577.7,247.3 562.3,320.6 403.9,342.1 276.6,247.3 292,172.2 450.4,150.7 "/> -->
</svg>