<svg fill="none" height="24" viewBox="0 0 24 24" width="24" xmlns="http://www.w3.org/2000/svg"><g stroke="#292d32" stroke-linecap="round" stroke-linejoin="round" stroke-width="1.5"><path d="m22 16.7399v-12.06996c0-1.2-.98-2.09-2.17-1.99h-.06c-2.1.18-5.29 1.25-7.07 2.37l-.17.11c-.29.18-.77.18-1.06 0l-.25-.15c-1.78-1.11-4.96-2.17-7.06-2.34-1.19-.1-2.16.8-2.16 1.99v12.07996c0 .96.78 1.86 1.74 1.98l.29.04c2.17.29 5.52 1.39 7.44 2.44l.04.02c.27.15.7.15.96 0 1.92-1.06 5.28-2.17 7.46-2.46l.33-.04c.96-.12 1.74-1.02 1.74-1.98z"/><path d="m12 5.48999v15.00001"/><path d="m7.75 8.48999h-2.25"/><path d="m8.5 11.49h-3"/></g></svg>