<svg viewBox="0 0 1024 1024" xmlns="http://www.w3.org/2000/svg"><path d="m957.6 507.4-354.4-349.2a7.9 7.9 0 0 0 -11.2 0l-238.7 235.2a8.03 8.03 0 0 0 -.1 11.3l.1.1 40 39.4-117.2 115.3a8.03 8.03 0 0 0 -.1 11.3l.1.1 39.5 38.9-189.1 187h-54.4c-4.4 0-8.1 3.6-8.1 8v55.2c0 4.4 3.6 8 8 8h344.9c2.1 0 4.1-.8 5.6-2.3l76.1-75.6 40.4 39.8a7.9 7.9 0 0 0 11.2 0l117.1-115.6 40.1 39.5a7.9 7.9 0 0 0 11.2 0l238.7-235.2c3.4-3 3.4-8 .3-11.2zm-567.8 288.8h-160.2l134.4-133 80.1 78.9zm154.8-62.1-171.4-168.9 68.6-67.6 171.4 168.9zm168.5-76.1-262.8-258.9 147.3-145.1 262.8 259z"/></svg>