<svg height="20" viewBox="0 0 20 20" width="20" xmlns="http://www.w3.org/2000/svg"><path d="m8.5 3c3.0375661 0 5.5 2.46243388 5.5 5.5 0 1.3387897-.4783412 2.5658568-1.2734386 3.5196163l4.126992 4.1268303c.1952621.1952622.1952621.5118446 0 .7071068-.1735664.1735663-.4429908.1928515-.6378589.0578554l-.0692479-.0578554-4.1268303-4.126992c-.9537595.7950974-2.1808266 1.2734386-3.5196163 1.2734386-3.03756612 0-5.5-2.4624339-5.5-5.5 0-3.03756612 2.46243388-5.5 5.5-5.5zm0 1c-2.48528137 0-4.5 2.01471863-4.5 4.5 0 2.4852814 2.01471863 4.5 4.5 4.5 2.4852814 0 4.5-2.0147186 4.5-4.5 0-2.48528137-2.0147186-4.5-4.5-4.5z" fill="#212121"/></svg>